# xmcd CD database file
#
# Track frame offsets:
#	150
#	22970
#	56520
#	89527
#	115087
#	163925
#	190420
#	216037
#	255215
#
# Disc length: 3968 seconds
#
# Revision: 0
# Processed by: cddbd v1.5.2PL0 Copyright (c) Steve Scherf et al.
# Submitted via: CDex 1.51
#
DISCID=720f7e09
DTITLE=Eric Kloss - Sweet Connections
DYEAR=1979
DGENRE=Jazz
TTITLE0=Sweet Connections
TTITLE1=Wrapped In A Cloud
TTITLE2=The Sands Of Time
TTITLE3=Places In My Past
TTITLE4=Irish Fantasy - The Ballad Of Charlotte McGhee
TTITLE5=Our Love Is Here To Stay
TTITLE6=Days Of Wine And Roses
TTITLE7=Gil's Tune
TTITLE8=The Seasons
EXTD=YEAR: 1979
EXTT0=
EXTT1=
EXTT2=
EXTT3=
EXTT4=
EXTT5=
EXTT6=
EXTT7=
EXTT8=
PLAYORDER=
